<?xml version="1.0" encoding="UTF-8"?><svg id="Layer_1" xmlns="http://www.w3.org/2000/svg" viewBox="0 0 120 91.67"><defs><style>.cls-1{fill:#4b833d;}.cls-1,.cls-2,.cls-3{stroke-width:0px;}.cls-2{fill:#85c443;}.cls-3{fill:#fff;}</style></defs><path class="cls-3" d="m0,45.39c0-3.9,2.97-6.41,6.48-6.41,1.77,0,3.83.63,5.11,2.81l-2,1.39c-.72-1.05-1.83-1.56-3.04-1.56-2.04,0-3.69,1.44-3.69,3.78s1.69,3.78,3.71,3.78c1.26,0,2.3-.51,3.02-1.56l2,1.39c-1.28,2.18-3.36,2.81-5.13,2.81-3.51,0-6.47-2.51-6.47-6.41Z"/><path class="cls-3" d="m12.81,45.39c0-3.81,2.93-6.41,6.47-6.41s6.47,2.6,6.47,6.41-2.95,6.41-6.47,6.41-6.47-2.6-6.47-6.41Zm10.07,0c0-2.3-1.63-3.78-3.6-3.78s-3.6,1.48-3.6,3.78,1.63,3.78,3.6,3.78,3.6-1.48,3.6-3.78Z"/><path class="cls-3" d="m25.84,39.15h3l3.23,9.05,3.23-9.05h3l-4.76,12.47h-2.95l-4.76-12.47Z"/><path class="cls-3" d="m47.17,49.08v2.55h-7.38v-12.47h7.22v2.55h-4.44v2.39h3.72v2.51h-3.72v2.48h4.6Z"/><path class="cls-3" d="m53.29,47.6h-1.51v4.02h-2.78v-12.47h4.53c2.65,0,4.48,1.67,4.48,4.32,0,1.76-.83,3-2.18,3.65l2.85,4.5h-2.93l-2.46-4.02Zm-1.51-2.37h1.48c1.12,0,1.95-.42,1.95-1.76s-.83-1.77-1.95-1.77h-1.48v3.53Z"/><path class="cls-3" d="m72.47,49.64h-5.06l-.7,1.99h-3l4.76-12.47h2.95l4.76,12.47h-3l-.7-1.99Zm-.93-2.56l-1.6-4.5-1.6,4.5h3.2Z"/><path class="cls-3" d="m84.98,49.08v2.55h-7.41v-12.47h2.78v9.93h4.64Z"/><path class="cls-3" d="m94.13,49.08v2.55h-7.41v-12.47h2.78v9.93h4.64Z"/><path class="cls-3" d="m55.37,59.29c0,1.02-.7,1.69-1.78,1.69h-.8v1.6h-.96v-4.99h1.76c1.08,0,1.78.67,1.78,1.69Zm-.98,0c0-.58-.37-.81-.89-.81h-.72v1.62h.72c.52,0,.89-.23.89-.81Z"/><path class="cls-3" d="m59.06,60.94h-.74v1.65h-.96v-4.99h1.75c1.06,0,1.76.67,1.76,1.69,0,.72-.34,1.24-.92,1.48l1.17,1.81h-1.03l-1.03-1.65Zm-.74-.84h.69c.53,0,.89-.23.89-.81s-.36-.81-.89-.81h-.69v1.62Z"/><path class="cls-3" d="m62.7,60.09c0-1.53,1.17-2.57,2.57-2.57s2.57,1.03,2.57,2.57-1.18,2.57-2.57,2.57-2.57-1.03-2.57-2.57Zm4.15,0c0-1.01-.72-1.65-1.58-1.65s-1.58.65-1.58,1.65.73,1.65,1.58,1.65,1.58-.65,1.58-1.65Z"/><path class="cls-3" d="m72.3,62.66c-1.38,0-2.56-1.01-2.56-2.57s1.18-2.57,2.59-2.57c.67,0,1.49.24,2.02,1.08l-.7.48c-.33-.46-.8-.65-1.31-.65-.89,0-1.62.63-1.62,1.65s.71,1.68,1.62,1.68c.61,0,1.17-.29,1.31-1.06h-1.2v-.81h2.13c.22,1.73-.91,2.76-2.29,2.76Z"/><path class="cls-3" d="m78.37,60.94h-.75v1.65h-.96v-4.99h1.75c1.06,0,1.76.67,1.76,1.69,0,.72-.34,1.24-.92,1.48l1.17,1.81h-1.03l-1.03-1.65Zm-.75-.84h.69c.53,0,.89-.23.89-.81s-.36-.81-.89-.81h-.69v1.62Z"/><path class="cls-3" d="m85.54,61.69h-2.12l-.33.9h-1.04l1.92-4.99h1.02l1.93,4.99h-1.04l-.33-.9Zm-.32-.89l-.74-2.01-.74,2.01h1.48Z"/><path class="cls-3" d="m88.75,57.6h1.06l1.63,3.76,1.63-3.76h1.06v4.99h-.96v-3.13h-.03l-1.34,3.13h-.71l-1.33-3.13h-.04v3.13h-.96v-4.99Z"/><path class="cls-1" d="m45.16,21.5l33.97-14.02,33.97,14.02c.01,1.63-.04,4.14-.3,7.25h6.91c.47-5.89.23-9.71.22-9.85l-.15-2.12L79.13,0l-40.65,16.8-.15,2.12c-.01.14-.26,4.08.25,10.14h6.91c-.29-3.25-.34-5.86-.33-7.55Z"/><path class="cls-1" d="m116.82,45.62c1.11-4.15,1.84-8.08,2.31-11.6h-6.95c-.51,3.52-1.3,7.46-2.51,11.6h7.15Z"/><path class="cls-1" d="m107.99,50.89v-.17c-4.53,12.27-13.02,25.3-28.86,33.28-6.17-3.11-11.21-6.98-15.35-11.27v9.44c3.98,3.31,8.58,6.3,13.89,8.8l1.47.69,1.47-.69c19.82-9.33,29.72-25.45,34.63-40.09h-7.24Z"/><path class="cls-2" d="m45.16,21.5l33.97-14.02.07.03V.03l-.07-.03-40.65,16.8-.15,2.12c-.01.14-.26,4.08.25,10.14h6.91c-.29-3.25-.34-5.86-.33-7.55Z"/><path class="cls-2" d="m79.2,83.97s-.04.02-.07.04c-6.17-3.11-11.21-6.98-15.35-11.27v9.44c3.98,3.31,8.58,6.3,13.89,8.8l1.47.69.06-.03v-7.67Z"/></svg>